<svg width="753" height="791" viewBox="0 0 753 791" fill="none" xmlns="http://www.w3.org/2000/svg">
<path d="M319.578 397.524C310.021 363.84 300.478 330.155 290.753 295.737C287.325 300.595 285.883 305.499 283.82 310.067C277.312 324.442 270.97 338.909 264.674 353.391C264.364 354.428 263.698 355.321 262.795 355.912C261.892 356.502 260.811 356.751 259.744 356.614C241.994 356.512 224.248 356.512 206.508 356.614C203.763 356.614 202.716 355.667 202.185 353.024C195.752 320.348 202.716 290.91 224.259 265.689C246.059 240.146 274.323 228.765 307.699 230.797C332.959 232.325 354.517 242.698 372.525 260.54C377.699 265.689 382.887 270.821 387.894 276.138C390.139 278.536 391.58 278.353 393.856 276.138C403.489 266.391 412.41 255.866 423.925 248.182C450.944 230.171 480.164 225.848 511.007 235.288C539.543 244.011 559.948 262.618 572.601 289.81C574.68 294.271 574.619 294.393 569.84 294.393C551.984 294.393 534.173 294.393 516.332 293.919C500.19 293.461 485.99 307.286 485.99 323.373C485.99 332.874 485.99 342.392 486.081 351.894C486.081 355.331 484.988 356.614 481.681 356.614C458.56 356.614 435.43 356.614 412.289 356.614C409.664 356.614 409.254 355.086 408.678 353.162C404.4 338.878 400.03 324.61 395.828 310.296C394.95 307.252 393.652 304.347 391.975 301.665C385.36 323.052 378.958 343.736 372.571 364.42L371.357 364.512L350.436 313.519C340.226 342.346 330.441 369.95 320.655 397.54L319.578 397.524Z" fill="#0EB8FA"/>
<path d="M289.6 313.9C299.462 348.593 309.156 382.751 318.85 416.894L319.958 417.032L350.163 331.896L351.331 331.789L372.085 382.629H373.117L391.868 321.768H392.87C395.267 329.671 397.659 337.564 400.046 345.446C401.396 349.922 402.898 354.368 404.005 358.92C404.688 361.731 406.084 362.51 408.875 362.495C430.661 362.424 452.446 362.312 474.232 362.159C477.555 362.159 481.12 362.159 483.85 364.099C486.581 366.039 487.719 370.515 485.17 372.669C483.53 373.734 481.568 374.178 479.633 373.922L445.589 373.356C439.202 373.249 432.679 373.158 426.58 375.098C419.135 377.581 412.926 382.855 409.239 389.824C404.597 398.547 407.024 407.01 407.009 416.451C407.009 431.881 407.009 447.325 407.115 462.754C407.115 466.604 406.251 467.704 402.306 467.566C361.678 466.146 321.384 462.143 281.575 453.588C279.849 453.395 278.225 452.663 276.933 451.495C258.591 432.996 239.688 415.061 222.317 395.63C214.731 387.166 209.831 376.992 205.795 366.39C204.536 363.075 205.492 362.388 208.693 362.403C226.898 362.51 245.104 362.403 263.309 362.51C264.505 362.662 265.715 362.377 266.72 361.707C267.725 361.037 268.458 360.027 268.786 358.859C274.733 345.019 280.923 331.254 286.991 317.475C287.435 316.021 288.355 314.761 289.6 313.9Z" fill="#0EB8FA"/>
<path d="M699.537 416.421C684.928 433.577 666.161 444.408 646.196 453.65C613.32 468.926 578.427 477.328 542.896 483.347C511.909 488.562 480.569 491.376 449.154 491.765C390.336 492.529 332.079 487.579 275.112 471.905C244.77 463.549 215.566 452.55 189.593 434.218C179.883 427.374 171.084 419.446 164.818 409.18C158.553 398.914 156.065 389.122 156.914 379.452C158.264 364.176 167.944 353.727 171.812 349.526C174.715 346.383 177.933 343.552 181.415 341.078L187.924 337.243L182.311 342.514C181.051 343.889 179.125 346.012 176.758 348.624L175.408 350.152C172.72 353.24 170.289 356.545 168.141 360.036C159.251 375.159 160.692 392.208 171.873 405.773C182.493 418.697 196.147 427.313 210.878 434.554C238.004 447.891 266.798 455.941 296.26 461.838C328.969 468.217 362.102 472.138 395.388 473.57C430.563 475.324 465.816 474.583 500.888 471.355C543.26 467.46 585.117 460.662 625.457 446.287C646.393 438.893 666.601 429.971 683.759 415.275C689.667 410.482 694.637 404.623 698.415 397.998C706.379 382.996 703.269 368.972 693.696 356.079C684.124 343.186 671.349 334.555 657.999 326.519C649.169 321.167 639.925 316.538 630.357 312.679C629.705 312.486 629.103 312.153 628.592 311.701C628.081 311.25 627.674 310.692 627.399 310.066C640.814 313.777 653.767 319.01 666.009 325.664C679.269 332.538 691.633 340.757 701.07 352.688C717.212 373.021 716.423 396.577 699.537 416.421Z" fill="#30A48F"/>
<path d="M312.736 486.356C318.805 487.395 324.433 488.358 330.092 489.412C369.793 496.236 410.063 499.116 450.323 498.012C451.333 497.952 452.346 497.952 453.357 498.012C454.449 498.119 455.951 497.447 456.512 498.746C457.074 500.044 455.572 500.716 454.828 501.48C438.848 517.694 422.848 533.851 406.827 549.952C402.412 554.413 397.891 558.767 393.598 563.335C391.641 565.397 390.442 565.901 388.106 563.533C368.171 543.246 348.085 523.127 328.029 502.947C323.826 498.715 319.578 494.499 315.391 490.237C314.08 489.299 313.14 487.924 312.736 486.356Z" fill="#0EB8FA"/>
<path d="M512.463 494.27C512.463 510.661 512.691 527.053 512.463 543.429C512.463 547.386 513.601 548.348 517.378 548.333C540.924 548.165 564.409 548.241 588.015 548.257C590.929 548.025 593.858 548.474 596.571 549.57C594.782 551.061 593.141 552.724 591.671 554.535C584.677 564.755 575.104 567.062 563.149 566.527C542.259 565.595 521.292 566.176 500.372 566.359C496.336 566.359 494.804 565.458 494.865 561.058C495.077 540.863 495.031 520.667 494.865 500.487C494.865 496.867 495.972 495.599 499.507 495.522C503.815 495.339 508.139 494.682 512.463 494.27Z" fill="#11819C"/>
<path d="M433.892 383.653C433.892 411.66 433.892 439.667 433.892 467.674C428.961 467.766 424.046 467.811 419.115 467.979C416.931 467.979 415.99 467.231 415.99 464.924C415.99 444.194 415.99 423.448 415.99 402.718C415.912 401.849 416.138 400.979 416.627 400.259C422.453 394.683 427.444 388.374 433.892 383.653Z" fill="#11819C"/>
<path d="M512.493 304.308C514.344 326.947 513.024 349.633 513.358 372.288C513.257 375.357 512.973 378.418 512.508 381.454C512.372 382.752 511.659 383.806 510.324 383.745C505.15 383.486 499.871 384.876 494.819 382.813C494.819 364.237 495.001 345.676 494.819 327.1C494.819 323.143 495.577 319.966 498.627 317.445C503.557 313.351 507.183 307.928 512.493 304.308Z" fill="#11819C"/>
<path d="M598.195 486.647C598.316 483.813 597.968 480.979 597.163 478.261L631.116 467.17C633.21 469.11 635.804 469.11 638.413 469.125L675.643 469.293C671.092 475.404 665.342 480.262 660.017 485.563C658.5 487.09 656.194 486.663 654.191 486.663C635.551 486.673 616.885 486.668 598.195 486.647Z" fill="#11819C"/>
<path d="M512.493 304.307C513.97 303.671 515.594 303.465 517.181 303.712C542.502 303.712 567.822 303.712 593.127 303.574C597.042 303.574 597.679 305.102 597.679 308.463C597.573 331.607 597.679 354.75 597.497 377.894C597.497 382.477 598.908 383.424 603.201 383.394C626.033 383.165 648.881 383.394 671.714 383.18C676.068 383.18 677.16 384.631 676.963 388.725C676.606 395.162 676.606 401.613 676.963 408.05C677.251 412.541 675.309 415.092 671.88 417.338C658.536 425.972 644.234 433.001 629.265 438.282C590.837 452.107 551.013 459.364 510.551 463.488C485.091 466.257 459.501 467.644 433.892 467.643C433.892 439.637 433.892 411.63 433.892 383.623C435.991 383.02 438.177 382.788 440.355 382.935L494.789 382.737C499.841 384.799 505.12 383.409 510.293 383.669C511.629 383.669 512.342 382.676 512.478 381.377C512.943 378.342 513.226 375.281 513.328 372.211C513.024 349.633 514.299 326.917 512.493 304.307Z" fill="#07D9A0"/>
<path d="M598.195 486.647C597.163 488.083 597.603 489.702 597.603 491.306C597.603 508.92 597.603 526.534 597.603 544.148C597.603 545.981 598.134 547.967 596.662 549.571C593.949 548.475 591.02 548.025 588.106 548.257C564.56 548.257 541.076 548.166 517.469 548.334C513.692 548.334 512.508 547.386 512.554 543.43C512.751 527.053 512.554 510.662 512.554 494.27C530.092 491.78 547.69 489.687 565.015 485.883C575.802 483.546 586.498 480.812 597.254 478.245C598.029 480.974 598.347 483.813 598.195 486.647Z" fill="#07D9A0"/>
<path d="M675.688 469.293L638.458 469.125C635.849 469.125 633.255 469.125 631.161 467.17C639.384 462.831 648.32 460.081 656.406 455.422C662.201 452.092 668.072 448.899 673.898 445.614C675.142 444.912 676.75 443.506 676.78 446.378C676.78 453.528 676.78 460.692 676.598 467.857C676.629 468.346 676.007 468.819 675.688 469.293Z" fill="#07D9A0"/>
<path d="M230.736 140.88C176.121 183.302 144.398 242.331 144.398 242.331C127.216 274.767 115.579 309.884 109.975 346.211C97.7318 424.121 111.492 498.028 153.485 564.664C213.108 659.287 299.416 711.899 410.999 717.857C507.214 722.989 589.168 688.526 656.77 619.537C657.665 618.621 658.56 617.689 659.486 616.803C659.592 616.681 659.88 616.803 661.306 617.918C647.561 632.171 634.605 647.31 619.95 660.539C545.9 727.374 458.727 757.942 359.706 751.236C323.418 748.954 287.719 740.9 253.933 727.374C242.206 722.638 186.073 699.326 133.975 646.027C114.404 626.034 97.2846 603.75 82.9855 579.65C76.0624 567.747 69.8318 555.449 64.3251 542.819C47.958 505.528 37.9269 465.735 34.6505 425.098C32.9474 400.279 33.8373 375.349 37.3055 350.717C40.6886 326.275 50.0795 263.825 93.9087 199.48C100.705 189.52 128.802 149.45 179.777 112.832C201.684 97.0668 257.362 58.0508 340.909 47.4489C424.911 36.7554 487.249 61.0755 528.483 77.1616C528.483 77.1616 565.774 91.7048 626.61 143.553C627.039 143.931 627.394 144.387 627.657 144.897C627.748 145.096 628.006 145.692 627.93 145.783C626.989 146.99 601.198 126.78 601.198 126.78C584.632 113.81 525.601 78.8267 445.634 73.8466C445.634 73.8466 364.651 68.7901 287.643 105.713C276.658 111.069 265.954 116.989 255.571 123.449C255.571 123.449 242.813 131.5 230.736 140.88Z" fill="#03CDAF"/>
</svg>
