<svg width="100" height="100" viewBox="0 0 100 100" fill="none" xmlns="http://www.w3.org/2000/svg">
<path d="M0 50C0 36.7392 5.26784 24.0215 14.6447 14.6447C24.0215 5.26784 36.7392 0 50 0C63.2608 0 75.9785 5.26784 85.3553 14.6447C94.7322 24.0215 100 36.7392 100 50V82.8125C100 84.0557 99.5061 85.248 98.6271 86.1271C97.748 87.0061 96.5557 87.5 95.3125 87.5C94.0693 87.5 92.877 87.0061 91.9979 86.1271C91.1189 85.248 90.625 84.0557 90.625 82.8125V50C90.625 39.2256 86.3449 28.8925 78.7262 21.2738C71.1075 13.6551 60.7744 9.375 50 9.375C39.2256 9.375 28.8925 13.6551 21.2738 21.2738C13.6551 28.8925 9.375 39.2256 9.375 50V82.8125C9.375 84.0557 8.88114 85.248 8.00206 86.1271C7.12299 87.0061 5.9307 87.5 4.6875 87.5C3.4443 87.5 2.25201 87.0061 1.37294 86.1271C0.49386 85.248 0 84.0557 0 82.8125L0 50ZM18.75 42.1875C18.75 36.15 23.65 31.25 29.6875 31.25H70.3125C76.35 31.25 81.25 36.15 81.25 42.1875V51.5625C81.25 54.4633 80.0977 57.2453 78.0465 59.2965C75.9953 61.3477 73.2133 62.5 70.3125 62.5H29.6875C26.7867 62.5 24.0047 61.3477 21.9535 59.2965C19.9023 57.2453 18.75 54.4633 18.75 51.5625V42.1875ZM27.9375 38.875C27.0597 39.7539 26.5666 40.9453 26.5666 42.1875C26.5666 43.4297 27.0597 44.6211 27.9375 45.5L37.3125 54.875C38.1914 55.7528 39.3828 56.2459 40.625 56.2459C41.8672 56.2459 43.0586 55.7528 43.9375 54.875L50 48.8125L56.0625 54.875C56.9414 55.7528 58.1328 56.2459 59.375 56.2459C60.6172 56.2459 61.8086 55.7528 62.6875 54.875L72.0625 45.5C72.6795 44.9271 73.1306 44.1983 73.3682 43.3905C73.6058 42.5827 73.6211 41.7257 73.4125 40.91C73.2039 40.0942 72.7792 39.3498 72.183 38.7552C71.5868 38.1605 70.8413 37.7377 70.025 37.5313C69.2102 37.3224 68.3541 37.337 67.5468 37.5734C66.7395 37.8099 66.0109 38.2595 65.4375 38.875L59.375 44.9375L53.3125 38.875C52.4336 37.9972 51.2422 37.5041 50 37.5041C48.7578 37.5041 47.5664 37.9972 46.6875 38.875L40.625 44.9375L34.5625 38.875C33.6836 37.9972 32.4922 37.5041 31.25 37.5041C30.0078 37.5041 28.8164 37.9972 27.9375 38.875ZM34.375 76.5625C34.375 75.3193 34.8689 74.127 35.7479 73.2479C36.627 72.3689 37.8193 71.875 39.0625 71.875H60.9375C62.1807 71.875 63.373 72.3689 64.2521 73.2479C65.1311 74.127 65.625 75.3193 65.625 76.5625C65.625 77.8057 65.1311 78.998 64.2521 79.8771C63.373 80.7561 62.1807 81.25 60.9375 81.25H39.0625C37.8193 81.25 36.627 80.7561 35.7479 79.8771C34.8689 78.998 34.375 77.8057 34.375 76.5625Z" fill="black"/>
</svg>
