<svg width="100" height="100" viewBox="0 0 100 100" fill="none" xmlns="http://www.w3.org/2000/svg">
<mask id="mask0_2861_25424" style="mask-type:luminance" maskUnits="userSpaceOnUse" x="4" y="6" width="92" height="88">
<path d="M91.6668 50V85.0375C91.6668 87.5479 89.8022 89.5833 87.5002 89.5833H12.5002C10.1981 89.5833 8.3335 87.5479 8.3335 85.0375V50L50.0002 77.0833L91.6668 50Z" stroke="white" stroke-width="8.33333" stroke-linejoin="round"/>
<path d="M8.3335 49.5507L29.1668 35.1924M91.6668 49.5507L70.8335 35.1924" stroke="white" stroke-width="8.33333" stroke-linecap="round" stroke-linejoin="round"/>
<path d="M70.8337 10.417H29.167V61.2816C29.1669 61.9758 29.3403 62.659 29.6714 63.2691C30.0025 63.8792 30.4808 64.397 31.0628 64.7753L47.7295 75.6087C48.4054 76.048 49.1942 76.2818 50.0003 76.2818C50.8065 76.2818 51.5953 76.048 52.2712 75.6087L68.9378 64.7753C69.5199 64.397 69.9981 63.8792 70.3292 63.2691C70.6603 62.659 70.8337 61.9758 70.8337 61.2816V10.417Z" fill="#555555" stroke="white" stroke-width="8.33333" stroke-linejoin="round"/>
<path d="M41.667 27.084H50.0003M41.667 39.584H58.3337" stroke="white" stroke-width="8.33333" stroke-linecap="round" stroke-linejoin="round"/>
</mask>
<g mask="url(#mask0_2861_25424)">
<path d="M0 0H100V100H0V0Z" fill="black"/>
</g>
</svg>
