<svg width="101" height="100" viewBox="0 0 101 100" fill="none" xmlns="http://www.w3.org/2000/svg">
<path d="M32.0195 34.375C35.3347 34.375 38.5142 33.058 40.8584 30.7138C43.2026 28.3696 44.5195 25.1902 44.5195 21.875C44.5195 18.5598 43.2026 15.3804 40.8584 13.0362C38.5142 10.692 35.3347 9.375 32.0195 9.375C28.7043 9.375 25.5249 10.692 23.1807 13.0362C20.8365 15.3804 19.5195 18.5598 19.5195 21.875C19.5195 25.1902 20.8365 28.3696 23.1807 30.7138C25.5249 33.058 28.7043 34.375 32.0195 34.375ZM7.01953 48.4375C7.01953 46.3655 7.84263 44.3784 9.30776 42.9132C10.7729 41.4481 12.76 40.625 14.832 40.625H34.7539C33.9771 42.6171 33.5796 44.7368 33.582 46.875C33.582 52.6875 36.4664 57.8281 40.8852 60.9375H33.582C31.2968 60.9372 29.0552 61.5634 27.101 62.7479C25.1467 63.9325 23.5546 65.6301 22.4977 67.6562C16.5102 66.1156 12.6789 63.1188 10.3133 59.7188C7.01953 54.9844 7.01953 50.0812 7.01953 49.2188V48.4375ZM79.0414 67.6562C85.0289 66.1156 88.8602 63.1188 91.2258 59.7188C94.5195 54.9844 94.5195 50.0781 94.5195 49.2188V48.4375C94.5195 46.3655 93.6964 44.3784 92.2313 42.9132C90.7662 41.4481 88.779 40.625 86.707 40.625H66.7852C67.5414 42.5625 67.957 44.6688 67.957 46.875C67.957 52.6875 65.0727 57.8281 60.6539 60.9375H67.957C70.2423 60.9372 72.4839 61.5634 74.4381 62.7479C76.3924 63.9325 77.9845 65.6301 79.0414 67.6562ZM82.0195 21.875C82.0195 25.1902 80.7026 28.3696 78.3584 30.7138C76.0142 33.058 72.8347 34.375 69.5195 34.375C66.2043 34.375 63.0249 33.058 60.6807 30.7138C58.3365 28.3696 57.0195 25.1902 57.0195 21.875C57.0195 18.5598 58.3365 15.3804 60.6807 13.0362C63.0249 10.692 66.2043 9.375 69.5195 9.375C72.8347 9.375 76.0142 10.692 78.3584 13.0362C80.7026 15.3804 82.0195 18.5598 82.0195 21.875ZM25.7695 73.4375C25.7695 71.3655 26.5926 69.3784 28.0578 67.9132C29.5229 66.4481 31.51 65.625 33.582 65.625H67.957C68.983 65.625 69.9989 65.8271 70.9467 66.2197C71.8946 66.6123 72.7558 67.1878 73.4813 67.9132C74.2068 68.6387 74.7822 69.4999 75.1748 70.4478C75.5675 71.3956 75.7695 72.4115 75.7695 73.4375V74.2188C75.7695 75.0781 75.7695 79.9844 72.4758 84.7188C69.0383 89.6594 62.507 93.75 50.7695 93.75C39.0352 93.75 32.5008 89.6594 29.0633 84.7188C25.7695 79.9844 25.7695 75.0812 25.7695 74.2188V73.4375ZM50.7695 59.375C54.0847 59.375 57.2642 58.058 59.6084 55.7138C61.9526 53.3696 63.2695 50.1902 63.2695 46.875C63.2695 43.5598 61.9526 40.3804 59.6084 38.0362C57.2642 35.692 54.0847 34.375 50.7695 34.375C47.4543 34.375 44.2749 35.692 41.9307 38.0362C39.5865 40.3804 38.2695 43.5598 38.2695 46.875C38.2695 50.1902 39.5865 53.3696 41.9307 55.7138C44.2749 58.058 47.4543 59.375 50.7695 59.375Z" fill="black"/>
</svg>
